<svg version="1.1" viewBox="0 0 690 340" xmlns="http://www.w3.org/2000/svg">
  <!-- Centered Top Rectangles -->
  <rect x="20" y="20" width="100" height="60" fill="#00ff00" id="w1"/>
  <rect x="130" y="20" width="100" height="60" fill="#4a86e8" id="w2"/>
  <rect x="240" y="20" width="100" height="60" fill="#8e7cc3" id="w3"/>
  <rect x="350" y="20" width="100" height="60" fill="#4a86e8" id="w4"/>
  <rect x="460" y="20" width="100" height="60" fill="#ff00ff" id="w5"/>
  <rect x="570" y="20" width="100" height="60" fill="#eeeeee" id="w6"/>

  <!-- Purple Bucket -->
  <polygon points="30,190 70,330 130,330 170,190" fill="#eeeeee" stroke="#595959" />
  <rect x="40" y="190" width="30" height="20" fill="#8e7cc3" />
  <circle cx="100" cy="310" r="10" fill="#4a86e8" id="w4-ball"/>

  <!-- Blue Bucket -->
  <polygon points="190,190 230,330 290,330 330,190" fill="#eeeeee" stroke="#595959" />
  <rect x="200" y="190" width="30" height="20" fill="#4a86e8" />
  <circle cx="280" cy="310" r="10" fill="#ff00ff" id="w5-ball"/>
  <circle cx="250" cy="290" r="10" fill="#8e7cc3" id="w3-ball"/>

  <!-- Green Bucket -->
  <polygon points="350,190 390,330 450,330 490,190" fill="#eeeeee" stroke="#595959" />
  <rect x="360" y="190" width="30" height="20" fill="#00ff00" />
  <circle cx="440" cy="310" r="10" fill="#4a86e8" id="w2-ball"/>

  <!-- Magenta Bucket -->
  <polygon points="510,190 550,330 610,330 650,190" fill="#eeeeee" stroke="#595959" stroke-width="1" />
  <rect x="520" y="190" width="30" height="20" fill="#ff00ff" />
  <circle cx="590" cy="310" r="10" fill="#ffffff" id="w6-ball"/>

  
  <!-- word 2-->
  <path d="M70,80 C100,150 390,150 420,190" stroke="#aaaaaa" stroke-width="3" fill="none" marker-end="url(#arrowhead)" id="w1-bin-arrow"/>
  <path d="M180,80 C180,150 440,250 440,300" stroke="#aaaaaa" stroke-width="3" fill="none" marker-end="url(#arrowhead)" id="w2-ball-arrow"/>

  <!-- word 3 -->
  <path d="M180,80 C220,150 220,150 260,190" stroke="#aaaaaa" stroke-width="3" fill="none" marker-end="url(#arrowhead)" id="w2-bin-arrow"/>
  <path d="M290,80 C290,150 250,230 250,280" stroke="#aaaaaa" stroke-width="3" fill="none" marker-end="url(#arrowhead)" id="w3-ball-arrow"/>

  <!-- word 4 -->
  <path d="M290,80 C180,150 130,150 100,190" stroke="#aaaaaa" stroke-width="3" fill="none" marker-end="url(#arrowhead)" id="w3-bin-arrow"/>
  <path d="M400,80 C370,150 100,250 100,299" stroke="#aaaaaa" stroke-width="3" fill="none" marker-end="url(#arrowhead)" id="w4-ball-arrow"/>
  
  <!-- word 5 -->
  <path d="M400,80 C330,150 250,150 260,190" stroke="#aaaaaa" stroke-width="3" fill="none" marker-end="url(#arrowhead)" id="w4-bin-arrow"/>
  <path d="M510,80 C510,150 280,250 280,300" stroke="#aaaaaa" stroke-width="3" fill="none" marker-end="url(#arrowhead)" id="w5-ball-arrow"/>
  
  <!-- word 6 -->
  <path d="M510,80 C590,150 540,150 590,190" stroke="#aaaaaa" stroke-width="3" fill="none" marker-end="url(#arrowhead)" id="w5-bin-arrow"/>
  <path d="M620,80 C620,150 590,250 590,300" stroke="#aaaaaa" stroke-width="3" fill="none" marker-end="url(#arrowhead)" id="w6-ball-arrow"/>

  <!-- Bin connectors -->
  <!-- Arrowhead definition -->
  <defs>
    <marker id="arrowhead" markerWidth="5" markerHeight="7" refX="4" refY="3.5" orient="auto">
      <polygon points="0 0, 5 3.5, 0 7" fill="#595959"/>
    </marker>
  </defs>
</svg>