<svg version="1.1" viewBox="0.0 0.0 960.0 540.0" fill="none" stroke="none" stroke-linecap="square" stroke-miterlimit="10" xmlns:xlink="http://www.w3.org/1999/xlink" xmlns="http://www.w3.org/2000/svg"><clipPath id="g34b7465870d_0_300.0"><path d="m0 0l960.0 0l0 540.0l-960.0 0l0 -540.0z" clip-rule="nonzero"/></clipPath><g clip-path="url(#g34b7465870d_0_300.0)"><path fill="#ffffff" d="m0 0l960.0 0l0 540.0l-960.0 0z" fill-rule="evenodd"/><path fill="#4a86e8" d="m174.93832 106.84777l124.62991 0l0 77.22834l-124.62991 0z" fill-rule="evenodd"/><path fill="#4a86e8" d="m450.39764 106.84777l124.629944 0l0 77.22834l-124.629944 0z" fill-rule="evenodd"/><path fill="#00ff00" d="m37.20866 106.84777l124.62991 0l0 77.22834l-124.62991 0z" fill-rule="evenodd"/><path fill="#f3f3f3" d="m725.8583 106.84777l124.62988 0l0 77.22834l-124.62988 0z" fill-rule="evenodd"/><path fill="#8e7cc3" d="m312.66797 106.84777l124.629944 0l0 77.22834l-124.629944 0z" fill-rule="evenodd"/><path fill="#ff00ff" d="m588.1286 106.84777l124.629944 0l0 77.22834l-124.629944 0z" fill-rule="evenodd"/><path fill="#00ff00" d="m-102.393166 360.3701l0 0c0 -10.932648 8.171684 -19.795288 18.251968 -19.795288l0 0c4.840721 0 9.483177 2.0855713 12.90609 5.7979126c3.422905 3.7123413 5.3458786 8.747345 5.3458786 13.9973755l0 0c0 10.932617 -8.171684 19.795258 -18.251968 19.795258l0 0c-10.080284 0 -18.251968 -8.86264 -18.251968 -19.795258z" fill-rule="evenodd"/></g></svg>