<svg version="1.1" viewBox="0.0 0.0 960.0 540.0" fill="none" stroke="none" stroke-linecap="square" stroke-miterlimit="10" xmlns:xlink="http://www.w3.org/1999/xlink" xmlns="http://www.w3.org/2000/svg"><clipPath id="g34b7465870d_0_275.0"><path d="m0 0l960.0 0l0 540.0l-960.0 0l0 -540.0z" clip-rule="nonzero"/></clipPath><g clip-path="url(#g34b7465870d_0_275.0)"><path fill="#ffffff" d="m0 0l960.0 0l0 540.0l-960.0 0z" fill-rule="evenodd"/><path fill="#eeeeee" d="m197.73228 308.66928l-45.669296 214.14175l-91.33858 0l-45.669292 -214.14175z" fill-rule="evenodd"/><path stroke="#595959" stroke-width="1.0" stroke-linejoin="round" stroke-linecap="butt" d="m197.73228 308.66928l-45.669296 214.14175l-91.33858 0l-45.669292 -214.14175z" fill-rule="evenodd"/><path fill="#8e7cc3" d="m32.724743 308.66916l49.259846 0l0 31.905518l-49.259846 0z" fill-rule="evenodd"/><path fill="#eeeeee" d="m614.5197 308.66928l-45.66931 214.14175l-91.33859 0l-45.66928 -214.14175z" fill-rule="evenodd"/><path stroke="#595959" stroke-width="1.0" stroke-linejoin="round" stroke-linecap="butt" d="m614.5197 308.66928l-45.66931 214.14175l-91.33859 0l-45.66928 -214.14175z" fill-rule="evenodd"/><path fill="#eeeeee" d="m411.29135 308.66928l-45.66931 214.14175l-91.33856 0l-45.66931 -214.14175z" fill-rule="evenodd"/><path stroke="#595959" stroke-width="1.0" stroke-linejoin="round" stroke-linecap="butt" d="m411.29135 308.66928l-45.66931 214.14175l-91.33856 0l-45.66931 -214.14175z" fill-rule="evenodd"/><path fill="#eeeeee" d="m829.1391 308.66928l-45.66931 214.14175l-91.33856 0l-45.66931 -214.14175z" fill-rule="evenodd"/><path stroke="#595959" stroke-width="1.0" stroke-linejoin="round" stroke-linecap="butt" d="m829.1391 308.66928l-45.66931 214.14175l-91.33856 0l-45.66931 -214.14175z" fill-rule="evenodd"/><path fill="#ff00ff" d="m669.41504 308.66916l49.259827 0l0 31.905518l-49.259827 0z" fill-rule="evenodd"/><path fill="#00ff00" d="m447.87698 308.66916l49.259827 0l0 31.905518l-49.259827 0z" fill-rule="evenodd"/><path fill="#4a86e8" d="m249.29167 308.66916l49.259842 0l0 31.905518l-49.259842 0z" fill-rule="evenodd"/><path fill="#8e7cc3" d="m276.16586 471.6009l0 0c0 -10.92392 8.171692 -19.77951 18.251984 -19.77951l0 0c4.8406982 0 9.483154 2.0838928 12.906067 5.793274c3.4229126 3.709381 5.345886 8.740387 5.345886 13.986237l0 0c0 10.92395 -8.171692 19.779541 -18.251953 19.779541l0 0c-10.080292 0 -18.251984 -8.855591 -18.251984 -19.779541z" fill-rule="evenodd"/><path fill="#00ff00" d="m-102.393166 360.3701l0 0c0 -10.932648 8.171684 -19.795288 18.251968 -19.795288l0 0c4.840721 0 9.483177 2.0855713 12.90609 5.7979126c3.422905 3.7123413 5.3458786 8.747345 5.3458786 13.9973755l0 0c0 10.932617 -8.171684 19.795258 -18.251968 19.795258l0 0c-10.080284 0 -18.251968 -8.86264 -18.251968 -19.795258z" fill-rule="evenodd"/><path fill="#ffffff" d="m718.67505 455.33072l0 0c0 -10.932648 8.171692 -19.795288 18.252014 -19.795288l0 0c4.8406982 0 9.483154 2.0855713 12.906067 5.7979126c3.4229126 3.7123108 5.345886 8.747345 5.345886 13.9973755l0 0c0 10.932617 -8.171692 19.795258 -18.251953 19.795258l0 0c-10.080322 0 -18.252014 -8.86264 -18.252014 -19.795258z" fill-rule="evenodd"/><path fill="#4a86e8" d="m479.9992 462.25986l0 0c0 -10.932648 8.171692 -19.795288 18.251984 -19.795288l0 0c4.8407288 0 9.483185 2.0855713 12.906097 5.7979126c3.4229126 3.7123108 5.345886 8.747314 5.345886 13.9973755l0 0c0 10.932617 -8.171692 19.795258 -18.251984 19.795258l0 0c-10.080292 0 -18.251984 -8.86264 -18.251984 -19.795258z" fill-rule="evenodd"/><path fill="#ff00ff" d="m284.33386 415.74014l0 0c0 -10.932617 8.171692 -19.795258 18.251984 -19.795258l0 0c4.8406982 0 9.483185 2.0855713 12.906067 5.7979126c3.4229126 3.7123108 5.345886 8.747314 5.345886 13.997345l0 0c0 10.932648 -8.171692 19.795288 -18.251953 19.795288l0 0c-10.080292 0 -18.251984 -8.86264 -18.251984 -19.795288z" fill-rule="evenodd"/><path fill="#4a86e8" d="m69.888985 480.91864l0 0c0 -10.932648 8.171684 -19.795288 18.251968 -19.795288l0 0c4.840721 0 9.483185 2.0855713 12.90609 5.7979126c3.4229126 3.7123413 5.3458786 8.747345 5.3458786 13.9973755l0 0c0 10.932617 -8.171684 19.795258 -18.251968 19.795258l0 0c-10.080284 0 -18.251968 -8.86264 -18.251968 -19.795258z" fill-rule="evenodd"/></g></svg>