<svg version="1.1" viewBox="0 0 960 320" xmlns="http://www.w3.org/2000/svg">
  <!-- Background -->
  <rect width="960" height="320" fill="#fff" />

  <!-- Purple Bin -->
  <polygon points="239,14 180,294 62,294 3,14" fill="#eee"/>
  <!-- Purple Bin Sticker -->
  <rect x="16" y="13" width="49" height="32" fill="#8e7cc3" />
  <!-- Purple Bin Balls -->
  <circle cx="100" cy="50" r="19" fill="#ff00ff" />
  <circle cx="180" cy="70" r="19" fill="#4a86e8" />
  <circle cx="140" cy="150" r="19" fill="#ff00ff" />
  <circle cx="80" cy="130" r="19" fill="#4a86e8" />
  <circle cx="130" cy="200" r="19" fill="#4a86e8" />
  <circle cx="170" cy="230" r="19" fill="#ff00ff" />
  <circle cx="90" cy="250" r="19" fill="#ffffff" />
  <circle cx="180" cy="115" r="19" fill="#ffffff" />
  <circle cx="145" cy="260" r="19" fill="#8e7cc3" />
  <circle cx="70" cy="205" r="19" fill="#00ff00" />

  <!-- Blue Bin -->
  <polygon points="480,13 421,293 303,293 244,13" fill="#eee" />
  <!-- Blue Bin Sticker -->
  <rect x="257" y="13" width="49" height="32" fill="#4a86e8" />
  <!-- Blue Bin Balls -->
  <circle cx="280" cy="90" r="19" fill="#00ff00" />
  <circle cx="430" cy="130" r="19" fill="#00ff00" />
  <circle cx="360" cy="60" r="19" fill="#00ff00" />
  <circle cx="390" cy="200" r="19" fill="#00ff00" />
  <circle cx="360" cy="170" r="19" fill="#ff00ff" />
  <circle cx="315" cy="240" r="19" fill="#ff00ff" />
  <circle cx="360" cy="240" r="19" fill="#ffffff" />
  <circle cx="295" cy="160" r="19" fill="#ffffff" />
  <circle cx="400" cy="260" r="19" fill="#8e7cc3" />
  <circle cx="330" cy="100" r="19" fill="#4a86e8" />

  <!-- Green Bin -->
  <polygon points="721,13 662,293 544,293 485,13" fill="#eee" />
  <!-- Green Bin Sticker -->
  <rect x="497" y="13" width="49" height="32" fill="#00ff00" />
  <!-- Green Bin Balls -->
  <circle cx="550" cy="210" r="19" fill="#8e7cc3" />
  <circle cx="580" cy="60" r="19" fill="#ffffff" />
  <circle cx="620" cy="250" r="19" fill="#ffffff" />
  <circle cx="600" cy="200" r="19" fill="#ffffff" />
  <circle cx="530" cy="170" r="19" fill="#00ff00" />
  <circle cx="660" cy="90" r="19" fill="#00ff00" />
  <circle cx="570" cy="130" r="19" fill="#ff00ff" />
  <circle cx="560" cy="250" r="19" fill="#ff00ff" />
  <circle cx="660" cy="160" r="19" fill="#ff00ff" />
  <circle cx="540" cy="80" r="19" fill="#ff00ff" />

  <!-- Pink Bin -->
  <polygon points="957,13 898,293 780,293 721,13" fill="#eee" />
  <!-- Pink Bin Sticker -->
  <rect x="731" y="13" width="49" height="32" fill="#ff00ff" />
  <!-- Pink Bin Balls -->
  <circle cx="850" cy="260" r="19" fill="#8e7cc3" />
  <circle cx="800" cy="50" r="19" fill="#8e7cc3" />
  <circle cx="830" cy="150" r="19" fill="#8e7cc3" />
  <circle cx="900" cy="80" r="19" fill="#8e7cc3" />
  <circle cx="80" cy="120" r="19" fill="#4a86e8" />
  <circle cx="770" cy="140" r="19" fill="#00ff00" />
  <circle cx="790" cy="190" r="19" fill="#ff00ff" />
  <circle cx="850" cy="80" r="19" fill="#ffffff" />
  <circle cx="870" cy="200" r="19" fill="#ffffff" />
  <circle cx="800" cy="250" r="19" fill="#ffffff" />
</svg>